<svg xmlns="http://www.w3.org/2000/svg" version="1.0" preserveAspectRatio="xMidYMid meet" viewBox="24.47 84.16 136.12 34.77">

<g transform="translate(0.000000,200.000000) scale(0.100000,-0.100000)" fill="#ffff" stroke="none">
<path d="M375 1151 c-125 -30 -172 -181 -88 -282 76 -90 225 -73 280 31 54 102 5 219 -105 250 -41 11 -44 11 -87 1z m25 -86 c0 -14 -4 -25 -10 -25 -5 0 -10 11 -10 25 0 14 5 25 10 25 6 0 10 -11 10 -25z m-40 -10 c7 -9 10 -18 7 -22 -8 -7 -37 15 -37 28 0 14 16 11 30 -6z m90 6 c0 -13 -29 -35 -37 -28 -7 8 15 37 28 37 5 0 9 -4 9 -9z m-90 -51 c0 -5 -11 -10 -25 -10 -14 0 -25 5 -25 10 0 6 11 10 25 10 14 0 25 -4 25 -10z m135 -47 c0 -11 6 -27 14 -37 21 -26 -9 -56 -35 -35 -10 8 -26 14 -37 14 -15 0 -24 13 -38 52 -9 28 -15 54 -12 56 2 3 28 -3 56 -12 39 -14 52 -23 52 -38z m-125 18 c0 -13 -29 -35 -37 -28 -7 8 15 37 28 37 5 0 9 -4 9 -9z"/>
<path d="M410 981 c0 -24 21 -62 31 -56 5 4 19 -1 30 -11 25 -23 38 -10 15 15 -10 11 -15 24 -12 29 3 6 -8 15 -26 21 -38 13 -38 13 -38 2z"/>
<path d="M781 1093 c-23 -92 -23 -93 -2 -93 14 0 21 10 25 35 4 19 12 35 18 35 7 0 9 -13 5 -35 -5 -29 -3 -35 12 -35 13 0 21 10 25 31 9 47 8 49 -19 49 -20 0 -25 5 -25 25 0 40 -28 30 -39 -12z"/>
<path d="M1164 1105 c-5 -19 -11 -24 -24 -20 -25 8 -52 -22 -48 -54 3 -23 8 -26 45 -28 l42 -1 10 49 c6 28 11 57 11 64 0 25 -29 16 -36 -10z m-14 -60 c0 -14 -4 -25 -10 -25 -5 0 -10 11 -10 25 0 14 5 25 10 25 6 0 10 -11 10 -25z"/>
<path d="M1570 1097 c-10 -7 -16 -27 -15 -52 0 -33 4 -41 21 -43 18 -3 20 1 16 29 -3 18 0 34 7 38 6 4 9 15 5 24 -7 20 -14 21 -34 4z"/>
<path d="M693 1080 c-28 -11 -29 -26 -3 -40 29 -16 25 -32 -6 -24 -19 5 -25 4 -20 -5 8 -13 55 -14 75 -2 17 11 7 41 -14 41 -8 0 -15 7 -15 16 0 14 3 14 15 4 9 -7 19 -10 22 -6 4 4 1 11 -7 16 -18 11 -18 11 -47 0z"/>
<path d="M938 1055 c3 -27 1 -35 -12 -35 -19 0 -21 16 -3 24 6 3 1 4 -13 3 -18 -1 -25 -8 -25 -22 0 -17 7 -20 41 -22 39 -1 42 1 48 30 5 24 2 35 -11 44 -26 19 -29 16 -25 -22z"/>
<path d="M1061 1081 c-10 -6 -11 -13 -3 -27 10 -18 11 -18 17 -2 10 25 3 39 -14 29z"/>
<path d="M1238 1083 c-10 -2 -18 -9 -18 -14 0 -12 17 -12 25 1 11 18 23 1 17 -25 -2 -14 -11 -25 -19 -25 -13 0 -13 3 -3 15 10 12 10 15 -1 15 -24 0 -42 -17 -36 -33 3 -9 20 -14 46 -14 38 0 41 2 47 34 4 19 5 35 3 37 -9 8 -45 13 -61 9z"/>
<path d="M1384 1082 c-5 -4 -10 -24 -11 -44 -2 -31 1 -38 16 -38 16 0 31 33 31 70 0 11 -25 19 -36 12z"/>
<path d="M1497 1069 c4 -13 0 -19 -11 -19 -10 0 -13 6 -10 15 10 26 -26 17 -38 -10 -8 -19 -8 -28 2 -40 14 -17 66 -20 75 -4 11 17 -4 24 -25 11 -17 -10 -20 -10 -20 3 0 10 10 15 30 15 23 0 30 5 30 19 0 10 -8 21 -19 24 -14 3 -17 0 -14 -14z"/>
<path d="M890 1070 c0 -5 4 -10 9 -10 6 0 13 5 16 10 3 6 -1 10 -9 10 -9 0 -16 -4 -16 -10z"/>
<path d="M1000 1063 c0 -10 -3 -28 -6 -40 -5 -19 -2 -23 15 -23 13 0 21 6 21 18 0 9 3 27 6 40 5 18 2 22 -15 22 -13 0 -21 -6 -21 -17z"/>
<path d="M1326 1068 c-17 -53 -16 -68 3 -68 16 0 31 33 31 71 0 14 -30 11 -34 -3z"/>
</g>
</svg>